# xmcd CD database file
# Copyright (C) 1997 Ti Kan
# 
# Track frame offsets:
#     183
#     13293
#     24968
#     38125
#     50960
#     64065
#     74743
#     86285
#     98148
#     109483
#     122848
#     133300
#     147450
#     160615
#     174338
#     189975
#     204128
#     215543
# 
# Disc length: 3035 seconds
# 
# Revision: 1
# Processed by: cddbd v1.4b41PL1 Copyright (c) Steve Scherf et al.
# Submitted via: DiscPlay 4.0.4
# 
DISCID=090bd912
DTITLE=Sonny Boy Williamson - Nine Below Zero
DYEAR=1900
DGENRE=
TTITLE0=Work With Me
TTITLE1=Don t Start Me Talkin 
TTITLE2=Let Me Explain
TTITLE3=Keep It To Yourself
TTITLE4=Have You Ever Been In Love
TTITLE5=Fattening Frogs For Snakes
TTITLE6=Born Blind
TTITLE7=Ninety Nine
TTITLE8=Your Funeral and My Trial
TTITLE9=Wake Up Baby
TTITLE10=Let Your Conscience Be Your Guide
TTITLE11=Unseeing Eye
TTITLE12=Open Road
TTITLE13=Lonesome Cabin
TTITLE14=Nine Below Zero
TTITLE15=Help Me
TTITLE16=Bring It On Home
TTITLE17=One Way Out
EXTD=
EXTT0=
EXTT1=
EXTT2=
EXTT3=
EXTT4=
EXTT5=
EXTT6=
EXTT7=
EXTT8=
EXTT9=
EXTT10=
EXTT11=
EXTT12=
EXTT13=
EXTT14=
EXTT15=
EXTT16=
EXTT17=
PLAYORDER=
